<svg xmlns="http://www.w3.org/2000/svg" width="1200" height="630" viewBox="0 0 1200 630" fill="none">
  <defs>
    <linearGradient id="bg" x1="96" y1="68" x2="1100" y2="586" gradientUnits="userSpaceOnUse">
      <stop stop-color="#F8F3EA"/>
      <stop offset="0.52" stop-color="#ECF5F6"/>
      <stop offset="1" stop-color="#DDEAF0"/>
    </linearGradient>
    <linearGradient id="panel" x1="148" y1="92" x2="1040" y2="548" gradientUnits="userSpaceOnUse">
      <stop stop-color="#0F172A"/>
      <stop offset="1" stop-color="#12344D"/>
    </linearGradient>
    <radialGradient id="glowA" cx="0" cy="0" r="1" gradientUnits="userSpaceOnUse" gradientTransform="translate(948 132) rotate(126.254) scale(242.299 266.833)">
      <stop stop-color="#24A4B5" stop-opacity="0.42"/>
      <stop offset="1" stop-color="#24A4B5" stop-opacity="0"/>
    </radialGradient>
    <radialGradient id="glowB" cx="0" cy="0" r="1" gradientUnits="userSpaceOnUse" gradientTransform="translate(938 472) rotate(113.282) scale(211.718 239.302)">
      <stop stop-color="#D76B47" stop-opacity="0.3"/>
      <stop offset="1" stop-color="#D76B47" stop-opacity="0"/>
    </radialGradient>
  </defs>
  <rect width="1200" height="630" rx="42" fill="url(#bg)"/>
  <rect x="68" y="58" width="1064" height="514" rx="36" fill="url(#panel)"/>
  <rect x="68" y="58" width="1064" height="514" rx="36" stroke="#FFFFFF" stroke-opacity="0.08"/>
  <rect x="104" y="98" width="514" height="434" rx="28" fill="#F6F1E7"/>
  <rect x="104" y="98" width="514" height="434" rx="28" stroke="#0F172A" stroke-opacity="0.08"/>
  <circle cx="916" cy="262" r="152" fill="url(#glowA)"/>
  <circle cx="888" cy="432" r="136" fill="url(#glowB)"/>
  <circle cx="916" cy="314" r="112" stroke="#7DF3FF" stroke-opacity="0.34"/>
  <circle cx="916" cy="314" r="168" stroke="#A0B5FF" stroke-opacity="0.18"/>
  <circle cx="916" cy="314" r="60" fill="#F6F1E7"/>
  <circle cx="916" cy="314" r="58" stroke="#FFFFFF" stroke-opacity="0.2"/>
  <path d="M650 138H1088" stroke="#FFFFFF" stroke-opacity="0.1"/>
  <path d="M650 492H1088" stroke="#FFFFFF" stroke-opacity="0.1"/>
  <path d="M650 138V492" stroke="#FFFFFF" stroke-opacity="0.1"/>
  <path d="M738 138V492" stroke="#FFFFFF" stroke-opacity="0.06"/>
  <path d="M826 138V492" stroke="#FFFFFF" stroke-opacity="0.06"/>
  <path d="M1002 138V492" stroke="#FFFFFF" stroke-opacity="0.06"/>
  <path d="M650 226H1088" stroke="#FFFFFF" stroke-opacity="0.06"/>
  <path d="M650 314H1088" stroke="#FFFFFF" stroke-opacity="0.06"/>
  <path d="M650 402H1088" stroke="#FFFFFF" stroke-opacity="0.06"/>
  <text x="146" y="156" fill="#117A8B" font-family="'IBM Plex Mono', monospace" font-size="20" letter-spacing="4.8">MEDICINE / RESEARCH / AI PRODUCT DESIGN</text>
  <text x="146" y="248" fill="#10213B" font-family="'Fraunces', serif" font-size="68" letter-spacing="-2.8">Nicholas A.</text>
  <text x="146" y="320" fill="#10213B" font-family="'Fraunces', serif" font-size="68" letter-spacing="-2.8">Householder, MD</text>
  <text x="146" y="382" fill="#42526B" font-family="'Manrope', sans-serif" font-size="27">Incoming UTMB IM-Ophthalmology PGY-1</text>
  <text x="146" y="420" fill="#42526B" font-family="'Manrope', sans-serif" font-size="27">TTUHSC graduate • USC ophthalmology research fellow</text>
  <text x="146" y="458" fill="#42526B" font-family="'Manrope', sans-serif" font-size="27">Publication-linked portfolio with clinical, academic, and builder work</text>
  <rect x="146" y="486" width="168" height="18" rx="9" fill="#0F172A" fill-opacity="0.08"/>
  <rect x="326" y="486" width="132" height="18" rx="9" fill="#117A8B" fill-opacity="0.14"/>
  <rect x="470" y="486" width="114" height="18" rx="9" fill="#D76B47" fill-opacity="0.16"/>
  <text x="710" y="164" fill="#7DF3FF" font-family="'IBM Plex Mono', monospace" font-size="16" letter-spacing="3.2">VISUAL SCIENCE</text>
  <text x="710" y="198" fill="#ECF5FF" font-family="'Fraunces', serif" font-size="34" letter-spacing="-1.2">Academic + Clinical</text>
  <text x="710" y="232" fill="#ECF5FF" font-family="'Fraunces', serif" font-size="34" letter-spacing="-1.2">Digital Portfolio</text>
</svg>
